<?xml version="1.0" standalone="no"?>
<!DOCTYPE svg PUBLIC "-//W3C//DTD SVG 20010904//EN"
 "http://www.w3.org/TR/2001/REC-SVG-20010904/DTD/svg10.dtd">
<svg version="1.0" xmlns="http://www.w3.org/2000/svg"
 width="112.000000pt" height="112.000000pt" viewBox="0 0 112.000000 112.000000"
 preserveAspectRatio="xMidYMid meet">
<metadata>
Created by potrace 1.14, written by Peter Selinger 2001-2017
</metadata>
<g transform="translate(0.000000,112.000000) scale(0.100000,-0.100000)"
fill="#000000" stroke="none">
<path d="M408 1105 c-141 -39 -260 -130 -314 -240 -16 -33 -29 -62 -30 -65 0
-3 -4 -16 -7 -30 -14 -54 -15 -95 -4 -109 10 -12 9 -13 -2 -7 -11 7 -12 -1 -6
-45 4 -30 11 -59 16 -65 5 -6 6 -14 3 -17 -4 -4 1 -18 10 -32 11 -16 12 -25 5
-25 -8 0 -6 -7 4 -18 10 -10 14 -22 10 -25 -3 -4 -1 -7 6 -7 9 0 11 6 6 18 -4
9 -7 25 -7 35 0 9 -3 17 -7 17 -5 0 -7 12 -5 27 1 16 -4 32 -14 40 -16 12 -16
13 1 7 9 -3 17 -1 17 5 0 6 -4 11 -10 11 -5 0 -10 5 -10 11 0 5 5 7 10 4 6 -4
10 7 10 24 0 41 -1 36 16 76 8 19 14 37 14 40 1 25 60 115 100 153 42 39 123
89 175 107 63 22 177 27 246 11 71 -16 168 -69 215 -116 21 -21 43 -36 48 -33
5 3 6 1 2 -5 -8 -14 48 -104 59 -94 5 4 5 2 2 -4 -3 -6 0 -35 8 -65 8 -30 15
-71 17 -92 1 -28 6 -36 16 -32 8 3 20 1 27 -5 9 -8 14 -6 19 5 3 9 0 15 -9 15
-8 0 -15 5 -15 10 0 17 33 -5 36 -24 2 -14 -2 -17 -21 -16 -8 1 -35 -27 -35
-35 0 -4 7 -4 16 -1 9 3 12 2 9 -4 -4 -6 -12 -10 -18 -9 -30 4 -39 -2 -34 -21
3 -11 1 -23 -4 -26 -5 -3 -8 -11 -7 -17 1 -7 -4 -23 -11 -36 -11 -20 -11 -25
0 -32 13 -8 6 -13 -13 -10 -12 2 -29 -39 -22 -51 5 -7 2 -9 -8 -6 -8 3 -19 -2
-26 -12 -10 -17 -9 -17 19 -3 17 8 33 12 36 9 3 -3 -6 -10 -21 -15 -14 -6 -26
-15 -26 -20 0 -13 29 -35 37 -28 3 4 13 1 21 -6 11 -8 14 -9 9 0 -4 7 0 16 10
22 10 6 13 11 7 11 -5 0 -15 -5 -22 -12 -9 -9 -12 -9 -12 0 0 7 -5 12 -11 12
-5 0 -7 -4 -4 -10 3 -5 2 -10 -4 -10 -12 0 -25 19 -17 27 3 3 17 6 32 6 15 0
21 3 14 7 -8 5 -7 9 5 14 23 9 25 8 19 -9 -4 -8 -1 -15 6 -15 6 0 8 5 5 10 -3
6 2 10 12 11 14 0 15 2 3 7 -17 8 -25 32 -10 32 6 0 10 -5 10 -11 0 -5 5 -7
11 -3 8 4 7 9 -2 15 -8 5 -11 9 -6 10 4 1 12 3 17 4 6 1 13 3 16 4 4 0 0 9 -7
18 -12 14 -12 16 2 11 9 -3 16 -1 17 5 1 16 12 68 18 89 11 36 12 58 4 58 -5
0 -12 -4 -15 -10 -3 -5 -1 -10 6 -10 8 0 8 -4 1 -12 -6 -7 -10 -17 -10 -21 0
-5 -4 -12 -8 -15 -4 -4 -4 -2 0 5 3 6 2 14 -3 17 -5 3 -12 -1 -15 -9 -3 -9 1
-18 9 -21 22 -9 18 -23 -4 -19 -15 3 -19 -1 -16 -16 3 -13 0 -17 -8 -12 -7 4
-5 -2 3 -12 12 -15 12 -17 1 -10 -10 6 -12 4 -6 -6 7 -11 5 -11 -10 1 -17 13
-18 13 -10 0 7 -12 6 -13 -7 -3 -8 7 -18 9 -23 5 -4 -4 -2 3 4 16 14 26 23 30
14 4 -6 -15 -5 -15 11 -3 16 14 16 16 2 27 -9 6 -16 15 -16 19 0 4 7 2 15 -5
9 -8 15 -8 15 -2 0 6 -6 13 -12 15 -10 4 -9 6 1 6 11 1 11 4 1 16 -9 10 -9 15
-1 15 6 0 11 -4 11 -10 0 -5 5 -10 11 -10 5 0 7 5 4 10 -6 9 8 15 29 11 5 -1
6 6 2 15 -4 11 1 22 13 30 15 11 18 23 15 66 -4 48 -9 85 -14 98 -1 3 -3 12
-4 20 0 8 -7 14 -15 12 -11 -2 -12 0 -3 11 9 10 6 24 -11 58 -103 203 -279
315 -496 317 -47 0 -107 -5 -133 -13z m562 -305 c0 -5 -5 -10 -11 -10 -5 0 -7
5 -4 10 3 6 8 10 11 10 2 0 4 -4 4 -10z m55 -19 c3 -5 2 -12 -3 -15 -5 -3 -9
1 -9 9 0 17 3 19 12 6z m5 -41 c0 -5 -5 -10 -11 -10 -5 0 -7 5 -4 10 3 6 8 10
11 10 2 0 4 -4 4 -10z m-3 -66 c0 -6 -9 -9 -19 -6 -10 2 -18 7 -18 11 0 4 8 7
18 7 10 0 19 -5 19 -12z m-963 -50 c3 -8 2 -12 -4 -9 -6 3 -10 10 -10 16 0 14
7 11 14 -7z m943 -36 c-3 -8 -6 -5 -6 6 -1 11 2 17 5 13 3 -3 4 -12 1 -19z
m68 12 c3 -6 -1 -7 -9 -4 -18 7 -21 14 -7 14 6 0 13 -4 16 -10z m-22 -195
c-12 -32 -23 -14 -14 23 1 2 5 1 11 -3 5 -3 7 -12 3 -20z m-41 -40 c10 2 21
-2 25 -7 3 -6 1 -8 -5 -4 -6 3 -13 2 -17 -4 -4 -6 -11 -8 -16 -5 -8 6 -13 -9
-10 -28 1 -5 -3 -6 -9 -2 -6 3 -7 11 -4 17 4 7 2 8 -4 4 -6 -4 -9 -13 -5 -21
3 -8 1 -15 -5 -15 -5 0 -12 11 -15 25 -2 14 -2 23 1 20 9 -9 32 17 25 29 -5 8
-3 8 8 0 8 -6 22 -10 31 -9z"/>
<path d="M374 827 c-65 -56 -10 -203 68 -184 63 16 74 134 16 182 -37 31 -50
31 -84 2z"/>
<path d="M633 840 c-74 -30 -77 -178 -4 -197 71 -18 124 107 74 174 -23 31
-38 36 -70 23z"/>
<path d="M228 633 c-20 -24 -14 -71 13 -99 28 -30 64 -31 83 -1 41 63 -48 156
-96 100z"/>
<path d="M761 629 c-41 -44 -27 -119 22 -119 49 0 90 80 63 122 -15 24 -61 23
-85 -3z"/>
<path d="M494 575 c-34 -14 -131 -138 -143 -182 -15 -55 18 -112 65 -113 12 0
38 14 59 30 46 36 74 38 112 6 45 -38 75 -42 108 -13 44 37 37 85 -24 172 -72
103 -114 127 -177 100z"/>
<path d="M1002 551 c-8 -5 -12 -15 -10 -24 2 -12 7 -10 21 9 18 24 13 31 -11
15z"/>
<path d="M1010 456 c0 -2 7 -7 16 -10 8 -3 12 -2 9 4 -6 10 -25 14 -25 6z"/>
<path d="M100 406 c0 -2 7 -9 15 -16 13 -11 14 -10 9 4 -5 14 -24 23 -24 12z"/>
<path d="M864 258 c3 -15 26 -23 26 -8 0 6 -4 9 -9 6 -5 -4 -12 -1 -14 4 -3 6
-4 5 -3 -2z"/>
<path d="M835 240 c-3 -5 -1 -10 4 -10 6 0 11 5 11 10 0 6 -2 10 -4 10 -3 0
-8 -4 -11 -10z"/>
<path d="M803 224 c9 -3 15 -9 13 -13 -3 -4 0 -13 5 -21 7 -11 8 -8 6 10 -3
16 -11 26 -23 27 -16 2 -16 1 -1 -3z"/>
<path d="M849 213 c-13 -15 -12 -15 9 -4 23 12 28 21 13 21 -5 0 -15 -7 -22
-17z"/>
<path d="M901 213 c12 -14 12 -16 -2 -11 -9 3 -22 3 -28 -2 -9 -5 -4 -7 13 -7
14 0 31 7 38 15 10 12 10 14 1 8 -7 -4 -13 -2 -13 3 0 6 -5 11 -11 11 -8 0 -7
-6 2 -17z"/>
<path d="M941 204 c0 -11 3 -14 6 -6 3 7 2 16 -1 19 -3 4 -6 -2 -5 -13z"/>
<path d="M416 195 c-3 -8 -1 -15 4 -15 6 0 10 7 10 15 0 8 -2 15 -4 15 -2 0
-6 -7 -10 -15z"/>
<path d="M452 194 c2 -8 7 -14 13 -14 5 1 13 -7 17 -17 7 -16 8 -16 5 2 -2 11
-9 19 -16 17 -9 -2 -11 3 -8 13 4 8 2 15 -4 15 -6 0 -9 -7 -7 -16z"/>
<path d="M490 200 c0 -5 5 -10 11 -10 5 0 7 5 4 10 -3 6 -8 10 -11 10 -2 0 -4
-4 -4 -10z"/>
<path d="M536 197 c4 -12 2 -17 -6 -15 -7 2 -15 -4 -17 -12 -4 -13 -3 -13 6 0
6 8 11 11 11 6 0 -6 5 -5 12 2 9 9 9 15 -1 25 -10 10 -11 8 -5 -6z"/>
<path d="M756 198 c3 -4 11 -5 19 -1 21 7 19 12 -4 10 -11 0 -18 -5 -15 -9z"/>
<path d="M348 193 c7 -3 16 -2 19 1 4 3 -2 6 -13 5 -11 0 -14 -3 -6 -6z"/>
<path d="M573 190 c2 -9 13 -14 26 -12 13 2 20 -1 19 -9 -2 -7 6 -14 17 -16
18 -3 18 -2 2 5 -10 4 -18 12 -18 17 1 6 -7 10 -16 10 -10 0 -22 5 -26 10 -5
6 -7 4 -4 -5z"/>
<path d="M696 191 c-4 -6 -13 -8 -20 -5 -19 7 -25 -7 -15 -31 8 -18 9 -18 5 3
-3 16 -1 22 8 19 15 -6 43 9 34 18 -3 4 -9 2 -12 -4z"/>
<path d="M375 180 c-3 -5 -2 -10 4 -10 5 0 13 5 16 10 3 6 2 10 -4 10 -5 0
-13 -4 -16 -10z"/>
<path d="M739 188 c-7 -23 -5 -37 4 -31 7 4 8 0 4 -11 -4 -10 -3 -15 3 -11 13
8 13 35 -1 35 -5 0 -7 5 -4 10 3 6 4 10 1 10 -3 0 -6 -1 -7 -2z"/>
<path d="M779 188 c-6 -21 -5 -37 2 -32 5 3 6 10 3 16 -5 7 -1 9 9 5 10 -3 17
-2 17 3 0 8 -28 15 -31 8z"/>
<path d="M915 179 c-4 -6 -5 -12 -2 -15 2 -3 7 2 10 11 7 17 1 20 -8 4z"/>
<path d="M151 170 c0 -8 4 -22 9 -30 12 -18 12 -2 0 25 -6 13 -9 15 -9 5z"/>
<path d="M880 169 c0 -5 -4 -8 -9 -4 -5 3 -12 1 -15 -4 -4 -5 2 -8 11 -7 15 3
33 26 19 26 -3 0 -6 -5 -6 -11z"/>
<path d="M182 157 c10 -8 14 -18 10 -22 -4 -5 -1 -5 6 -1 17 10 15 14 -10 26
-21 10 -21 10 -6 -3z"/>
<path d="M540 160 c-8 -5 -10 -10 -5 -10 6 0 17 5 25 10 8 5 11 10 5 10 -5 0
-17 -5 -25 -10z"/>
<path d="M795 149 c-4 -6 -5 -12 -2 -15 2 -3 7 2 10 11 7 17 1 20 -8 4z"/>
<path d="M511 143 c3 -20 -2 -27 -11 -13 -6 9 -10 10 -10 3 0 -19 17 -24 29
-9 9 10 9 16 1 21 -6 4 -10 3 -9 -2z"/>
<path d="M575 140 c5 -9 1 -11 -16 -6 -13 3 -18 3 -11 0 6 -3 10 -9 7 -14 -3
-4 3 -14 13 -21 14 -11 15 -11 5 1 -10 10 -9 16 4 25 13 10 13 14 3 20 -9 6
-11 4 -5 -5z"/>
<path d="M819 148 c0 -2 -2 -13 -3 -25 -2 -16 1 -20 9 -13 7 5 14 8 17 5 2 -3
5 1 5 9 0 8 -6 12 -15 8 -10 -3 -13 -1 -8 6 4 7 5 12 2 12 -3 0 -6 -1 -7 -2z"/>
<path d="M875 140 c-16 -7 -17 -9 -3 -9 9 -1 20 4 23 9 7 11 7 11 -20 0z"/>
<path d="M690 126 c0 -8 4 -17 9 -20 5 -4 7 3 4 14 -6 23 -13 26 -13 6z"/>
<path d="M210 120 c0 -5 5 -10 10 -10 6 0 10 5 10 10 0 6 -4 10 -10 10 -5 0
-10 -4 -10 -10z"/>
<path d="M269 117 c6 -8 7 -18 3 -22 -4 -5 -1 -5 6 -1 10 6 10 11 1 22 -6 8
-14 14 -16 14 -3 0 0 -6 6 -13z"/>
<path d="M599 128 c-7 -23 -4 -35 7 -35 9 0 11 4 4 12 -5 7 -7 15 -3 18 3 4 3
7 0 7 -4 0 -7 -1 -8 -2z"/>
<path d="M455 89 c-4 -6 -5 -12 -2 -15 2 -3 7 2 10 11 7 17 1 20 -8 4z"/>
<path d="M636 87 c3 -10 9 -15 12 -12 3 3 0 11 -7 18 -10 9 -11 8 -5 -6z"/>
<path d="M775 89 c-4 -6 -5 -12 -2 -15 2 -3 7 2 10 11 7 17 1 20 -8 4z"/>
<path d="M357 71 c-10 -14 -10 -14 4 -4 9 7 18 10 21 7 3 -3 8 -1 12 4 9 16
-24 9 -37 -7z"/>
<path d="M715 71 c-3 -5 -2 -12 3 -15 5 -3 9 1 9 9 0 17 -3 19 -12 6z"/>
<path d="M479 33 c-13 -16 -12 -17 4 -4 16 13 21 21 13 21 -2 0 -10 -8 -17
-17z"/>
<path d="M515 41 c-3 -5 -2 -12 3 -15 5 -3 9 1 9 9 0 17 -3 19 -12 6z"/>
<path d="M650 39 c0 -5 5 -7 10 -4 6 3 10 8 10 11 0 2 -4 4 -10 4 -5 0 -10 -5
-10 -11z"/>
</g>
</svg>
